<mxfile host="app.diagrams.net" agent="Mozilla/5.0 (Windows NT 10.0; Win64; x64; rv:132.0) Gecko/20100101 Firefox/132.0" version="24.8.6">
  <diagram name="Page-1" id="1iwVxutnvDwoOHhmz1F1">
    <mxGraphModel dx="1434" dy="782" grid="1" gridSize="10" guides="1" tooltips="1" connect="1" arrows="1" fold="1" page="1" pageScale="1" pageWidth="827" pageHeight="1169" math="0" shadow="0">
      <root>
        <mxCell id="0" />
        <mxCell id="1" parent="0" />
        <mxCell id="GaP0o0gFWO2JClPfEH_W-40" value="" style="rounded=1;whiteSpace=wrap;html=1;fillColor=#b0e3e6;strokeColor=#0e8088;" vertex="1" parent="1">
          <mxGeometry x="313" y="100" width="237" height="130" as="geometry" />
        </mxCell>
        <mxCell id="GaP0o0gFWO2JClPfEH_W-39" value="" style="rounded=1;whiteSpace=wrap;html=1;strokeColor=#9673a6;fillColor=#e1d5e7;" vertex="1" parent="1">
          <mxGeometry x="540" y="230" width="220" height="180" as="geometry" />
        </mxCell>
        <mxCell id="GaP0o0gFWO2JClPfEH_W-38" value="" style="rounded=1;whiteSpace=wrap;html=1;strokeColor=#d6b656;fillColor=#fff2cc;" vertex="1" parent="1">
          <mxGeometry x="250" y="230" width="290" height="180" as="geometry" />
        </mxCell>
        <mxCell id="GaP0o0gFWO2JClPfEH_W-37" value="" style="rounded=1;whiteSpace=wrap;html=1;strokeColor=#d79b00;fillColor=#ffe6cc;" vertex="1" parent="1">
          <mxGeometry x="55" y="290" width="195" height="120" as="geometry" />
        </mxCell>
        <mxCell id="GaP0o0gFWO2JClPfEH_W-1" value="" style="ellipse;shape=cloud;whiteSpace=wrap;html=1;" vertex="1" parent="1">
          <mxGeometry x="230" y="220" width="320" height="190" as="geometry" />
        </mxCell>
        <mxCell id="GaP0o0gFWO2JClPfEH_W-4" value="&lt;div&gt;&lt;b&gt;Sensors&lt;/b&gt;&lt;/div&gt;" style="rounded=1;whiteSpace=wrap;html=1;" vertex="1" parent="1">
          <mxGeometry x="70" y="305" width="110" height="50" as="geometry" />
        </mxCell>
        <mxCell id="GaP0o0gFWO2JClPfEH_W-5" value="" style="shape=flexArrow;endArrow=classic;html=1;rounded=0;fillColor=#d5e8d4;strokeColor=#82b366;exitX=1;exitY=0.5;exitDx=0;exitDy=0;" edge="1" parent="1" source="GaP0o0gFWO2JClPfEH_W-4">
          <mxGeometry width="50" height="50" relative="1" as="geometry">
            <mxPoint x="200" y="380" as="sourcePoint" />
            <mxPoint x="250" y="330" as="targetPoint" />
          </mxGeometry>
        </mxCell>
        <mxCell id="GaP0o0gFWO2JClPfEH_W-6" value="" style="html=1;shadow=0;dashed=0;align=center;verticalAlign=middle;shape=mxgraph.arrows2.calloutDouble90Arrow;dy1=4.5;dx1=20;dx2=52;dy2=53;arrowHead=7;" vertex="1" parent="1">
          <mxGeometry x="265" y="313" width="80" height="80" as="geometry" />
        </mxCell>
        <mxCell id="GaP0o0gFWO2JClPfEH_W-7" value="Data&lt;br&gt;format" style="text;html=1;align=center;verticalAlign=middle;resizable=0;points=[];autosize=1;strokeColor=none;fillColor=none;" vertex="1" parent="1">
          <mxGeometry x="260" y="320" width="60" height="40" as="geometry" />
        </mxCell>
        <mxCell id="GaP0o0gFWO2JClPfEH_W-9" value="&lt;b&gt;LoRa Network - TTN&lt;/b&gt;" style="text;html=1;align=center;verticalAlign=middle;resizable=0;points=[];autosize=1;strokeColor=none;fillColor=none;" vertex="1" parent="1">
          <mxGeometry x="353" y="300" width="140" height="30" as="geometry" />
        </mxCell>
        <mxCell id="GaP0o0gFWO2JClPfEH_W-10" value="" style="shape=cube;whiteSpace=wrap;html=1;boundedLbl=1;backgroundOutline=1;darkOpacity=0.05;darkOpacity2=0.1;size=20;" vertex="1" parent="1">
          <mxGeometry x="610" y="280" width="60" height="100" as="geometry" />
        </mxCell>
        <mxCell id="GaP0o0gFWO2JClPfEH_W-11" value="Monitor server" style="text;html=1;align=center;verticalAlign=middle;resizable=0;points=[];autosize=1;strokeColor=none;fillColor=none;" vertex="1" parent="1">
          <mxGeometry x="630" y="380" width="100" height="30" as="geometry" />
        </mxCell>
        <mxCell id="GaP0o0gFWO2JClPfEH_W-12" value="" style="shape=flexArrow;endArrow=classic;html=1;rounded=0;entryX=-0.033;entryY=0.64;entryDx=0;entryDy=0;entryPerimeter=0;fillColor=#d5e8d4;strokeColor=#82b366;" edge="1" parent="1" target="GaP0o0gFWO2JClPfEH_W-10">
          <mxGeometry width="50" height="50" relative="1" as="geometry">
            <mxPoint x="540" y="344" as="sourcePoint" />
            <mxPoint x="560" y="380" as="targetPoint" />
          </mxGeometry>
        </mxCell>
        <mxCell id="GaP0o0gFWO2JClPfEH_W-13" value="&lt;div&gt;Sensors&lt;/div&gt;&lt;div&gt;data&lt;/div&gt;" style="text;html=1;align=center;verticalAlign=middle;resizable=0;points=[];autosize=1;strokeColor=none;fillColor=none;" vertex="1" parent="1">
          <mxGeometry x="540" y="358" width="70" height="40" as="geometry" />
        </mxCell>
        <mxCell id="GaP0o0gFWO2JClPfEH_W-14" value="" style="shape=flexArrow;endArrow=classic;html=1;rounded=0;fillColor=#f8cecc;strokeColor=#b85450;" edge="1" parent="1">
          <mxGeometry width="50" height="50" relative="1" as="geometry">
            <mxPoint x="600" y="300" as="sourcePoint" />
            <mxPoint x="528.02" y="300" as="targetPoint" />
          </mxGeometry>
        </mxCell>
        <mxCell id="GaP0o0gFWO2JClPfEH_W-15" value="&lt;div&gt;Actions&lt;/div&gt;&lt;div&gt;commands&lt;/div&gt;" style="text;html=1;align=center;verticalAlign=middle;resizable=0;points=[];autosize=1;strokeColor=none;fillColor=none;" vertex="1" parent="1">
          <mxGeometry x="530" y="240" width="90" height="40" as="geometry" />
        </mxCell>
        <mxCell id="GaP0o0gFWO2JClPfEH_W-16" value="&lt;div&gt;&lt;b&gt;Engines&lt;/b&gt;&lt;/div&gt;&lt;div&gt;(LED, servos, speakers, ...)&lt;/div&gt;" style="rounded=1;whiteSpace=wrap;html=1;" vertex="1" parent="1">
          <mxGeometry x="368" y="110" width="110" height="60" as="geometry" />
        </mxCell>
        <mxCell id="GaP0o0gFWO2JClPfEH_W-18" value="" style="shape=flexArrow;endArrow=classic;html=1;rounded=0;entryX=0.25;entryY=1;entryDx=0;entryDy=0;fillColor=#d5e8d4;strokeColor=#82b366;" edge="1" parent="1">
          <mxGeometry width="50" height="50" relative="1" as="geometry">
            <mxPoint x="390" y="230" as="sourcePoint" />
            <mxPoint x="389.5" y="180" as="targetPoint" />
          </mxGeometry>
        </mxCell>
        <mxCell id="GaP0o0gFWO2JClPfEH_W-19" value="&lt;div&gt;Sensors&lt;/div&gt;&lt;div&gt;data&lt;/div&gt;" style="text;html=1;align=center;verticalAlign=middle;resizable=0;points=[];autosize=1;strokeColor=none;fillColor=none;" vertex="1" parent="1">
          <mxGeometry x="180" y="340" width="70" height="40" as="geometry" />
        </mxCell>
        <mxCell id="GaP0o0gFWO2JClPfEH_W-20" value="&lt;div&gt;Sensors&lt;/div&gt;&lt;div&gt;data&lt;/div&gt;" style="text;html=1;align=center;verticalAlign=middle;resizable=0;points=[];autosize=1;strokeColor=none;fillColor=none;" vertex="1" parent="1">
          <mxGeometry x="310" y="190" width="70" height="40" as="geometry" />
        </mxCell>
        <mxCell id="GaP0o0gFWO2JClPfEH_W-21" value="" style="shape=flexArrow;endArrow=classic;html=1;rounded=0;entryX=0.25;entryY=1;entryDx=0;entryDy=0;fillColor=#f8cecc;strokeColor=#b85450;" edge="1" parent="1">
          <mxGeometry width="50" height="50" relative="1" as="geometry">
            <mxPoint x="460.5" y="230" as="sourcePoint" />
            <mxPoint x="460" y="180" as="targetPoint" />
          </mxGeometry>
        </mxCell>
        <mxCell id="GaP0o0gFWO2JClPfEH_W-22" value="&lt;div&gt;Actions&lt;/div&gt;&lt;div&gt;commands&lt;/div&gt;" style="text;html=1;align=center;verticalAlign=middle;resizable=0;points=[];autosize=1;strokeColor=none;fillColor=none;" vertex="1" parent="1">
          <mxGeometry x="460" y="190" width="90" height="40" as="geometry" />
        </mxCell>
        <mxCell id="GaP0o0gFWO2JClPfEH_W-23" value="Web interface" style="rounded=1;whiteSpace=wrap;html=1;" vertex="1" parent="1">
          <mxGeometry x="650" y="300" width="90" height="30" as="geometry" />
        </mxCell>
        <mxCell id="GaP0o0gFWO2JClPfEH_W-25" value="" style="shape=actor;whiteSpace=wrap;html=1;fillColor=#fff2cc;strokeColor=#000000;" vertex="1" parent="1">
          <mxGeometry x="250" y="200" width="40" height="60" as="geometry" />
        </mxCell>
        <mxCell id="GaP0o0gFWO2JClPfEH_W-26" value="TTN" style="text;html=1;align=center;verticalAlign=middle;resizable=0;points=[];autosize=1;strokeColor=none;fillColor=none;" vertex="1" parent="1">
          <mxGeometry x="245" y="230" width="50" height="30" as="geometry" />
        </mxCell>
        <mxCell id="GaP0o0gFWO2JClPfEH_W-28" value="Sensors" style="text;html=1;align=center;verticalAlign=middle;resizable=0;points=[];autosize=1;strokeColor=none;fillColor=none;" vertex="1" parent="1">
          <mxGeometry x="40" y="420" width="70" height="30" as="geometry" />
        </mxCell>
        <mxCell id="GaP0o0gFWO2JClPfEH_W-29" value="" style="shape=actor;whiteSpace=wrap;html=1;fillColor=#e1d5e7;strokeColor=#000000;" vertex="1" parent="1">
          <mxGeometry x="720" y="200" width="40" height="60" as="geometry" />
        </mxCell>
        <mxCell id="GaP0o0gFWO2JClPfEH_W-30" value="API" style="text;html=1;align=center;verticalAlign=middle;resizable=0;points=[];autosize=1;strokeColor=none;fillColor=none;" vertex="1" parent="1">
          <mxGeometry x="720" y="230" width="40" height="30" as="geometry" />
        </mxCell>
        <mxCell id="GaP0o0gFWO2JClPfEH_W-31" value="" style="shape=actor;whiteSpace=wrap;html=1;fillColor=#b0e3e6;strokeColor=#000000;" vertex="1" parent="1">
          <mxGeometry x="510" y="60" width="40" height="60" as="geometry" />
        </mxCell>
        <mxCell id="GaP0o0gFWO2JClPfEH_W-32" value="CTH" style="text;html=1;align=center;verticalAlign=middle;resizable=0;points=[];autosize=1;strokeColor=none;fillColor=none;" vertex="1" parent="1">
          <mxGeometry x="505" y="90" width="50" height="30" as="geometry" />
        </mxCell>
        <mxCell id="GaP0o0gFWO2JClPfEH_W-33" value="Center Town Hall" style="text;html=1;align=center;verticalAlign=middle;resizable=0;points=[];autosize=1;strokeColor=none;fillColor=none;" vertex="1" parent="1">
          <mxGeometry x="470" y="111" width="120" height="30" as="geometry" />
        </mxCell>
        <mxCell id="GaP0o0gFWO2JClPfEH_W-27" value="" style="shape=actor;whiteSpace=wrap;html=1;fillColor=#ffe6cc;strokeColor=#000000;" vertex="1" parent="1">
          <mxGeometry x="55" y="365" width="40" height="60" as="geometry" />
        </mxCell>
        <mxCell id="GaP0o0gFWO2JClPfEH_W-41" value="SEN" style="text;html=1;align=center;verticalAlign=middle;resizable=0;points=[];autosize=1;strokeColor=none;fillColor=none;" vertex="1" parent="1">
          <mxGeometry x="50" y="396" width="50" height="30" as="geometry" />
        </mxCell>
      </root>
    </mxGraphModel>
  </diagram>
</mxfile>
